<?xml version="1.0" standalone="no"?>
<!DOCTYPE svg PUBLIC "-//W3C//DTD SVG 20010904//EN"
 "http://www.w3.org/TR/2001/REC-SVG-20010904/DTD/svg10.dtd">
<svg version="1.0" xmlns="http://www.w3.org/2000/svg"
 width="1280.000000pt" height="1119.000000pt" viewBox="0 0 1280.000000 1119.000000"
 preserveAspectRatio="xMidYMid meet">
<metadata>
Created by potrace 1.15, written by Peter Selinger 2001-2017
</metadata>
<g transform="translate(0.000000,1119.000000) scale(0.100000,-0.100000)"
fill="#000000" stroke="none">
<path d="M5890 11057 c-85 -29 -158 -76 -217 -141 -34 -37 -344 -564 -1030
-1747 -539 -932 -1790 -3089 -2778 -4794 -989 -1705 -1805 -3116 -1815 -3135
-9 -19 -25 -65 -34 -101 -66 -268 95 -537 370 -615 54 -16 185 -18 1434 -24
l1375 -6 -1130 -4 c-621 -2 -1087 -6 -1035 -10 52 -4 2518 -11 5480 -15 5065
-8 5390 -7 5469 9 176 36 275 118 317 262 28 98 10 200 -61 349 -37 76 -33 69
-595 1045 -378 657 -497 864 -722 1255 -63 110 -167 290 -230 400 -64 110
-254 441 -423 735 -169 294 -378 657 -463 805 -217 376 -536 930 -717 1245
-140 244 -612 1065 -880 1530 -62 107 -174 303 -250 435 -76 132 -187 326
-248 430 -60 105 -206 359 -325 565 -539 939 -567 986 -652 1061 -60 55 -136
99 -127 75 15 -37 -6 -9 -69 97 -80 132 -127 186 -208 239 -123 80 -299 102
-436 55z m-2462 -10564 c-38 -2 -98 -2 -135 0 -38 2 -7 3 67 3 74 0 105 -1 68
-3z m255 0 c-23 -2 -64 -2 -90 0 -26 2 -7 3 42 3 50 0 71 -1 48 -3z m6290 -10
c-468 -2 -1238 -2 -1710 0 -472 1 -88 2 852 2 941 0 1327 -1 858 -2z m1650 0
c-7 -2 -21 -2 -30 0 -10 3 -4 5 12 5 17 0 24 -2 18 -5z"/>
</g>
</svg>
